<svg width="33" height="31" viewBox="0 0 33 31" fill="none" xmlns="http://www.w3.org/2000/svg">
<path d="M15.7614 26.0686C15.3465 26.3747 14.9631 26.4983 14.4275 26.4983C14.0073 26.4983 13.939 26.4821 13.5767 26.2995C13.1408 26.0793 12.8204 25.7624 12.5841 25.3166L15.7614 26.0686ZM15.7614 26.0686C15.9137 25.9558 16.691 25.2468 17.4945 24.4948C18.298 23.7375 18.9702 23.1145 18.9912 23.1091C19.0122 23.0984 20.0101 23.904 21.2074 24.8923M15.7614 26.0686L21.2074 24.8923M3.49039 13.8068L3.4905 13.8068C3.40704 14.0024 3.37068 14.2452 3.36993 14.47C3.3692 14.6929 3.40329 14.9373 3.49314 15.1332C3.58398 15.3364 3.76091 15.5398 3.94928 15.7071C4.14243 15.8787 4.37594 16.0374 4.60721 16.1383M3.49039 13.8068L28.9382 15.9703C28.8556 16.387 28.7765 16.7867 28.7006 17.1699C27.8167 21.6346 27.3741 23.8702 27.1013 25.0422C26.9543 25.6737 26.8511 26.0223 26.7452 26.2491C26.6475 26.4582 26.5429 26.5682 26.4472 26.6688C26.4301 26.6868 26.4133 26.7045 26.3968 26.7224M3.49039 13.8068L3.4939 13.7991M3.49039 13.8068L3.4939 13.7991M4.60721 16.1383C4.71925 16.1874 5.09154 16.3077 5.57319 16.4563C6.06666 16.6086 6.70099 16.7984 7.35866 16.9894C8.01208 17.1799 8.60903 17.3557 9.04314 17.4845C9.26025 17.5489 9.43639 17.6014 9.55841 17.6382C9.57445 17.643 9.58952 17.6476 9.6036 17.6518L9.65977 17.8153C9.72676 18.0106 9.82306 18.2919 9.94153 18.6387C10.1785 19.3321 10.504 20.2866 10.8611 21.3366L10.8612 21.3368C11.2186 22.385 11.5603 23.369 11.822 24.1094C11.9528 24.4795 12.0639 24.7894 12.147 25.0162C12.2255 25.2306 12.2879 25.3957 12.3165 25.4523L12.319 25.4572L12.319 25.4571C12.5835 25.956 12.9483 26.3182 13.4414 26.5673L13.4417 26.5674C13.6203 26.6574 13.7577 26.7234 13.9121 26.7595C14.0655 26.7954 14.221 26.7983 14.4275 26.7983C15.0246 26.7983 15.471 26.6557 15.9395 26.31L15.9399 26.3097C16.0314 26.2419 16.2779 26.0231 16.5856 25.7433C16.9007 25.4568 17.2969 25.0906 17.6995 24.7139L17.7002 24.7132C18.1016 24.3349 18.4698 23.9904 18.7401 23.7401C18.8466 23.6415 18.9374 23.5579 19.0089 23.4928C19.1211 23.5802 19.2782 23.7052 19.47 23.8597C19.8705 24.1823 20.4183 24.63 21.0165 25.1237C21.7707 25.7472 22.347 26.2139 22.7672 26.5415C23.1774 26.8612 23.4613 27.0666 23.618 27.1467C24.6169 27.6576 25.6705 27.5152 26.3968 26.7224M4.60721 16.1383C4.60717 16.1383 4.60712 16.1383 4.60707 16.1383L4.7275 15.8635L4.60752 16.1385C4.60742 16.1384 4.60732 16.1384 4.60721 16.1383ZM26.3968 26.7224L26.1756 26.5197M26.3968 26.7224C26.3967 26.7225 26.3966 26.7226 26.3965 26.7227L26.1756 26.5197M26.1756 26.5197C25.5506 27.2019 24.6473 27.3362 23.7545 26.8796C23.5025 26.7507 22.7147 26.1384 21.2074 24.8923M26.1756 26.5197C26.2272 26.4635 26.2721 26.4186 26.3137 26.3708L21.2074 24.8923M3.4939 13.7991C3.65274 13.4539 4.02042 13.0947 4.39725 12.8839C4.42601 12.8678 4.46747 12.8499 4.497 12.8371C4.5385 12.8192 4.59454 12.7957 4.66362 12.7672C4.80205 12.71 4.99702 12.631 5.24167 12.5328C5.7312 12.3363 6.42242 12.0618 7.26419 11.7294C8.94787 11.0645 11.2354 10.1674 13.7197 9.19779C15.8816 8.35403 18.0874 7.49294 20.0041 6.7447C22.4915 5.77368 24.4922 4.99269 25.2785 4.68616C25.9722 4.41474 26.6241 4.16204 27.1153 3.97375C27.3608 3.87963 27.5666 3.80142 27.7177 3.74494C27.8473 3.69647 27.9537 3.65736 28.0031 3.64251C28.0883 3.61495 28.2135 3.5988 28.3234 3.58858C28.4471 3.57707 28.5908 3.56991 28.7258 3.56984C29.1545 3.56423 29.53 3.63715 29.8524 3.82055C30.1767 4.00496 30.42 4.28547 30.6103 4.64733C30.6951 4.80455 30.7587 4.93114 30.7953 5.09604C30.8294 5.25023 30.8372 5.42747 30.8449 5.68157L30.8449 5.68218M3.4939 13.7991L30.8449 5.68218M30.8449 5.68218C30.8538 5.99677 30.8478 6.18614 30.6082 7.47432M30.8449 5.68218L30.6082 7.47432M17.0903 18.9583C17.1097 18.9743 17.1301 18.9912 17.1516 19.009C17.3452 19.1689 17.6251 19.3998 17.9708 19.6844C18.5692 20.1773 19.3639 20.8312 20.2464 21.5573L20.6628 21.8999C21.71 22.7616 22.6887 23.5598 23.4222 24.1512C23.7891 24.4469 24.094 24.6904 24.3153 24.8639C24.426 24.9507 24.5147 25.0192 24.5792 25.0676C24.6196 25.098 24.644 25.1153 24.6563 25.1241C24.6673 25.1319 24.6686 25.1329 24.6631 25.1301L24.5265 25.3972L17.0903 18.9583ZM17.0903 18.9583C17.1241 18.9212 17.1618 18.8797 17.2033 18.8343C17.4116 18.6058 17.7137 18.2757 18.0872 17.8682C18.8341 17.0533 19.8659 15.9296 21.0028 14.6916C22.1429 13.4558 23.186 12.3138 23.949 11.4689C24.3304 11.0466 24.6424 10.6979 24.8617 10.4486C24.9711 10.3242 25.0586 10.2233 25.1203 10.15C25.151 10.1136 25.1769 10.0821 25.1966 10.057C25.2063 10.0446 25.2163 10.0315 25.2252 10.0187C25.2281 10.0147 25.2511 9.98331 25.267 9.9438L25.2681 9.94103L25.2681 9.94103C25.3391 9.75942 25.3487 9.55104 25.3209 9.3634C25.2931 9.17635 25.2237 8.97941 25.1039 8.82091C24.8698 8.49691 24.4802 8.36875 24.0907 8.41683C24.0275 8.42453 23.9591 8.45053 23.9153 8.46769C23.8579 8.49019 23.7862 8.52128 23.7014 8.55992C23.5313 8.63746 23.2964 8.75108 22.9951 8.90128C22.3918 9.20201 21.5127 9.65425 20.3335 10.2694L20.3331 10.2696C16.0134 12.5309 13.5034 13.8439 12.0662 14.5916C11.3473 14.9656 10.898 15.1976 10.625 15.3359C10.4914 15.4036 10.4022 15.4478 10.345 15.475C10.3133 15.467 10.2735 15.4565 10.2258 15.4437C10.0953 15.4087 9.91279 15.358 9.69507 15.2966C9.25997 15.1738 8.6881 15.009 8.11877 14.843C7.58866 14.6884 7.06148 14.5329 6.64969 14.4093C6.92514 14.2996 7.26725 14.164 7.66374 14.0075C8.76546 13.5727 10.2855 12.9766 11.9579 12.3241L11.958 12.3241L12.2164 12.2231C15.5562 10.918 20.4711 8.99753 23.286 7.89831C24.7299 7.33446 26.0609 6.81763 27.0412 6.43913C27.5314 6.24987 27.9337 6.09529 28.2185 5.98675C28.361 5.93245 28.4736 5.88986 28.5529 5.86027C28.5833 5.84895 28.6063 5.84047 28.6233 5.83427C28.6225 5.83919 28.6217 5.84457 28.6207 5.85043C28.6141 5.89141 28.6041 5.94982 28.5907 6.02531C28.5638 6.17597 28.5243 6.38994 28.4738 6.65878C28.3728 7.19621 28.2282 7.94988 28.0542 8.8482C27.7063 10.6447 27.2411 13.018 26.7721 15.3931C26.3031 17.7683 25.8304 20.145 25.4673 21.9481C25.2858 22.8498 25.1318 23.6077 25.0195 24.1501C24.9633 24.4215 24.9177 24.6382 24.8843 24.7918C24.8676 24.8688 24.8542 24.9288 24.8442 24.9715C24.8351 25.0104 24.8312 25.0241 24.8314 25.0242C24.8315 25.0242 24.8318 25.0233 24.8324 25.0217L17.0903 18.9583ZM30.6082 7.47432C30.3682 8.765 29.8885 11.1832 28.9382 15.9701L30.6082 7.47432ZM16.8936 19.1766L16.8936 19.1767L16.8936 19.1766ZM12.7999 20.0854C13.1156 21.0111 13.3599 21.7133 13.5358 22.2017C13.6258 21.8344 13.7357 21.3823 13.8521 20.9016C13.9889 20.3233 14.1218 19.7795 14.2259 19.3689C14.278 19.1637 14.3232 18.9906 14.3582 18.8627C14.3756 18.7989 14.391 18.7447 14.4037 18.7028C14.4134 18.671 14.4288 18.6206 14.4468 18.5838L14.7163 18.7155L14.438 18.6035C14.456 18.5589 14.4852 18.5195 14.4938 18.5078C14.4943 18.5072 14.4947 18.5066 14.4951 18.5061C14.5104 18.4853 14.5294 18.4611 14.5505 18.4349C14.5932 18.3822 14.6519 18.3123 14.7239 18.2286C14.8682 18.0607 15.0714 17.8301 15.3177 17.5543C15.8107 17.0023 16.4801 16.2653 17.2055 15.4776L17.2056 15.4776C17.8774 14.7483 18.5026 14.0681 18.9882 13.5385C18.2116 13.9432 17.1869 14.4773 16.0687 15.0604C14.8711 15.6889 13.7759 16.261 12.976 16.6774C12.5761 16.8856 12.2499 17.055 12.0216 17.173C11.9642 17.2027 11.9129 17.2291 11.8682 17.2522C11.8686 17.2538 11.8691 17.2554 11.8696 17.257C11.9163 17.4123 11.9874 17.6375 12.0778 17.9169C12.2584 18.475 12.514 19.243 12.7999 20.0854ZM16.6221 21.5046L16.6205 21.5033C16.4332 21.3483 16.2588 21.2048 16.1166 21.0886C16.1073 21.1256 16.0974 21.1647 16.0872 21.2056C16.0001 21.5523 15.8822 22.0307 15.7536 22.5566C15.6558 22.9671 15.5621 23.3587 15.4831 23.6871C15.6688 23.5185 15.8814 23.3224 16.1077 23.1104C16.4823 22.7594 16.8223 22.4357 17.0675 22.1976C17.1345 22.1326 17.194 22.0743 17.245 22.0239C17.2371 22.0171 17.229 22.0101 17.2207 22.0031C17.0666 21.8713 16.8544 21.6942 16.6221 21.5046Z" fill="white" stroke="#52E0B5" stroke-width="0.6"/>
</svg>
