<svg width="37" height="28" viewBox="0 0 37 28" fill="none" xmlns="http://www.w3.org/2000/svg">
<path d="M6.42056 3.20916L6.41271 3.19897L6.40576 3.18814C6.37848 3.14563 6.35304 3.08187 6.35843 3.00366C6.36377 2.92628 6.39702 2.86804 6.42717 2.83153C6.4773 2.77083 6.53742 2.7467 6.55165 2.741L6.55221 2.74077C6.59199 2.72478 6.63051 2.71868 6.64643 2.71623C6.68834 2.70978 6.74314 2.7055 6.80497 2.7021C6.93276 2.69506 7.13212 2.68974 7.41777 2.68569C7.99085 2.67757 8.92862 2.67434 10.3762 2.67434H14.129H14.274L14.3641 2.78796L17.5484 6.80447L17.5488 6.80488L17.558 6.81643C18.4314 7.91419 19.2275 8.9147 19.8078 9.64213C20.099 10.0072 20.3356 10.3032 20.5002 10.5081C20.5199 10.5326 20.5385 10.5557 20.556 10.5775C20.5833 10.5508 20.6128 10.5219 20.6446 10.4907C20.8504 10.2886 21.1469 9.99481 21.5121 9.63117C22.2424 8.90405 23.2463 7.8991 24.3475 6.79258L28.3493 2.76294L28.4373 2.67434H28.5622H29.7085H30.8548H31.5775L31.0672 3.18614L29.403 4.85553C26.2032 8.07661 24.3012 9.99382 23.2017 11.1122C22.6516 11.6718 22.304 12.0297 22.0956 12.2505C22.0513 12.2975 22.0138 12.3377 21.9824 12.3718C22.0473 12.4547 22.1332 12.564 22.2382 12.6973C22.4936 13.0217 22.8615 13.4875 23.3146 14.0602C24.2209 15.2055 25.468 16.778 26.8384 18.5015L26.8385 18.5017C29.5264 21.8883 31.7507 24.6998 31.8469 24.8222C31.8475 24.823 31.8482 24.8238 31.8488 24.8246C31.8494 24.8253 31.8498 24.8259 31.85 24.8261L31.85 24.8261C31.895 24.8849 31.9421 24.995 31.8928 25.1218C31.8542 25.2212 31.7779 25.2662 31.7568 25.2781C31.7074 25.306 31.6581 25.3155 31.6433 25.3183L31.6423 25.3185C31.599 25.3269 31.5441 25.3318 31.4867 25.3355C31.3658 25.3433 31.1745 25.349 30.8949 25.3533C30.3334 25.362 29.3941 25.3652 27.8994 25.3652H24.1465H24.0016L23.9115 25.2517L20.5275 20.9846L20.5274 20.9845L17.3532 16.9859L13.3501 21.0094L13.3499 21.0097L9.11387 25.2766L9.02588 25.3652H8.90097H7.75469C7.22114 25.3652 6.92201 25.3644 6.76782 25.3531C6.72822 25.3502 6.68734 25.346 6.64988 25.3383C6.64961 25.3383 6.64933 25.3382 6.64904 25.3382C6.6248 25.3332 6.54475 25.317 6.4755 25.2562C6.43132 25.2175 6.38691 25.1565 6.37244 25.0735C6.3588 24.9952 6.37779 24.9312 6.39394 24.8936C6.4196 24.8338 6.46037 24.7916 6.46961 24.782C6.47009 24.7815 6.47048 24.7811 6.47079 24.7808L6.47069 24.7807L6.47705 24.7744C6.82219 24.4326 9.23538 22.0028 11.5643 19.6554C12.7283 18.4821 13.8706 17.33 14.722 16.4707C15.1476 16.0411 15.5005 15.6847 15.7469 15.4354C15.8254 15.356 15.8931 15.2875 15.9489 15.231C15.8907 15.157 15.8175 15.0641 15.7303 14.9536C15.4854 14.6431 15.131 14.1949 14.6937 13.6424C13.8191 12.5374 12.6132 11.0156 11.2876 9.34381C8.63266 6.00182 6.44232 3.23742 6.42056 3.20916ZM6.90356 25.1965C6.90237 25.1978 6.90332 25.197 6.90573 25.1943C6.905 25.195 6.90428 25.1958 6.90356 25.1965ZM10.3424 4.74131C11.1598 5.75368 14.2757 9.6138 17.901 14.1075C17.901 14.1075 17.901 14.1075 17.901 14.1076L25.3866 23.3806L26.9026 23.3846H26.903H27.9296C27.1069 22.3656 23.9946 18.51 20.3745 14.0226C20.3745 14.0226 20.3745 14.0226 20.3745 14.0226L12.8889 4.74525L11.373 4.74131H11.3722H10.3424Z" fill="white" stroke="#52E0B5" stroke-width="0.6"/>
</svg>
